<svg id="Capa_1" data-name="Capa 1" xmlns="http://www.w3.org/2000/svg" viewBox="0 0 11.29 14.12"><defs><style>.cls-1{fill:#adadad;}</style></defs><title>icon-ubicacion-alt</title><path class="cls-1" d="M7.84,15.21a.2.2,0,0,1-.17-.09l-4.18-5A5.52,5.52,0,0,1,7.72,1.09H8a5.51,5.51,0,0,1,4.22,9.07L8,15.12A.21.21,0,0,1,7.84,15.21ZM7.72,1.55A5.05,5.05,0,0,0,3.85,9.86l4,4.75,4-4.75h0A5.06,5.06,0,0,0,8,1.55Z" transform="translate(-2.2 -1.09)"/><path class="cls-1" d="M7.84,9.92a3.32,3.32,0,1,1,3.32-3.31A3.32,3.32,0,0,1,7.84,9.92Zm0-6.17A2.86,2.86,0,1,0,10.7,6.61,2.86,2.86,0,0,0,7.84,3.75Z" transform="translate(-2.2 -1.09)"/></svg>