<svg id="Capa_1" data-name="Capa 1" xmlns="http://www.w3.org/2000/svg" viewBox="0 0 13.64 9.13"><defs><style>.cls-1{fill:#adadad;}</style></defs><title>icon-email-alt</title><path class="cls-1" d="M14.41,13.05H1.23A.23.23,0,0,1,1,12.82V4.15a.23.23,0,0,1,.23-.23H14.41a.24.24,0,0,1,.23.23v8.67a.23.23,0,0,1-.23.23M1.46,12.6H14.18V4.38H1.46Z" transform="translate(-1 -3.92)"/><path class="cls-1" d="M7.82,10.39a.25.25,0,0,1-.16-.06l-6.59-6A.21.21,0,0,1,1,4.07a.22.22,0,0,1,.21-.15H14.41a.23.23,0,0,1,.21.15.23.23,0,0,1-.06.25L8,10.33a.22.22,0,0,1-.15.06m-6-6,6,5.47,6-5.47Z" transform="translate(-1 -3.92)"/><path class="cls-1" d="M14.41,13.05H1.23A.23.23,0,0,1,1,12.9a.23.23,0,0,1,.08-.26L6.31,8.73a.23.23,0,1,1,.28.36L1.92,12.6h11.8L9.11,9.14a.23.23,0,0,1,.27-.37l5.16,3.87a.22.22,0,0,1,.08.26.22.22,0,0,1-.21.15" transform="translate(-1 -3.92)"/></svg>