<svg id="Capa_1" data-name="Capa 1" xmlns="http://www.w3.org/2000/svg" viewBox="0 0 11.24 13.77"><defs><style>.cls-1{fill:#003e4c;stroke:#fbfdfd;stroke-miterlimit:10;stroke-width:0.25px;}</style></defs><title>icon-trash-primary</title><g id="k1CYFO"><path class="cls-1" d="M9.86,1a1.16,1.16,0,0,1,.37.13.85.85,0,0,1,.39.71v.85h2.5a.9.9,0,0,1,.55.17.87.87,0,0,1,.33.65v.9a.84.84,0,0,1-.68.8l-.16,0v7.58a1.69,1.69,0,0,1-1.35,1.68,1.66,1.66,0,0,1-.32,0h-6A1.6,1.6,0,0,1,4.29,14a1.72,1.72,0,0,1-.42-.88,2.35,2.35,0,0,1,0-.26V5.23H3.73A.85.85,0,0,1,3,4.5a.22.22,0,0,1,0-.08v-.9A.82.82,0,0,1,3.8,2.7H6.39V1.82A.85.85,0,0,1,7.11,1H9.86Zm2.45,4.23H4.7v7.59a1.1,1.1,0,0,0,0,.18.84.84,0,0,0,.84.68h5.87a.75.75,0,0,0,.21,0,.85.85,0,0,0,.67-.87V5.23ZM8.51,3.54H4.27A.41.41,0,0,0,3.86,4a.43.43,0,0,0,.41.42h8.47a.42.42,0,1,0,0-.84Zm1.26-.85c0-.14,0-.27,0-.41a.41.41,0,0,0-.42-.43q-.84,0-1.68,0a.4.4,0,0,0-.42.34,4.17,4.17,0,0,0,0,.5Z" transform="translate(-2.89 -0.88)"/><path class="cls-1" d="M8.08,9.87V7.38a.43.43,0,0,1,.34-.45.42.42,0,0,1,.5.33.66.66,0,0,1,0,.14v4.95a.45.45,0,0,1-.22.43.42.42,0,0,1-.62-.31s0-.09,0-.14Z" transform="translate(-2.89 -0.88)"/><path class="cls-1" d="M6.81,9.88c0,.83,0,1.66,0,2.49a.43.43,0,0,1-.21.4.4.4,0,0,1-.42,0A.41.41,0,0,1,6,12.4V7.35a.4.4,0,0,1,.34-.42.42.42,0,0,1,.5.35v2.6Z" transform="translate(-2.89 -0.88)"/><path class="cls-1" d="M10.2,9.87V7.37a.41.41,0,0,1,.3-.43.42.42,0,0,1,.54.42v5a.42.42,0,0,1-.84.09V9.87Z" transform="translate(-2.89 -0.88)"/></g></svg>