<svg id="Capa_1" data-name="Capa 1" xmlns="http://www.w3.org/2000/svg" viewBox="0 0 14.92 14.24"><defs><style>.cls-1{fill:#003e4c;stroke:#fbfdfd;stroke-miterlimit:10;stroke-width:0.25px;}</style></defs><title>icon-editar-primary</title><g id="q77Ggs"><path class="cls-1" d="M14.49,7.79h.86V10c0,1.21,0,2.43,0,3.64a1.68,1.68,0,0,1-1.83,1.84H2c-.51,0-.68-.19-.68-.69q0-6.06,0-12.12c0-.44.1-.72.6-.72H9.55l.17,0v.8H2.2V14.58H13.39c.82,0,1.1-.28,1.1-1.11V7.79Z" transform="translate(-1.17 -1.33)"/><path class="cls-1" d="M16,4.23a5.1,5.1,0,0,1-.67,1.21c-1.92,2-3.88,3.91-5.83,5.86a1,1,0,0,1-.4.24c-1.21.33-2.43.65-3.65,1-.57.15-.83-.08-.68-.65.31-1.18.63-2.37,1-3.54a1.31,1.31,0,0,1,.37-.56q2.81-2.82,5.62-5.63a1.75,1.75,0,0,1,2.76,0,6.9,6.9,0,0,1,.85.86A10,10,0,0,1,16,4.23Zm-4.4-.63L6.86,8.29,9,10.41l4.71-4.67Zm.68-.74,2.17,2.2c.72-.57.74-1,.1-1.63l-.67-.66C13.19,2.13,12.74,2.17,12.23,2.86ZM5.72,11.52l2.21-.61L6.33,9.25Z" transform="translate(-1.17 -1.33)"/><path class="cls-1" d="M11.55,5.28l.44.44L9.22,8.5,8.8,8Z" transform="translate(-1.17 -1.33)"/></g></svg>