<svg id="Capa_1" data-name="Capa 1" xmlns="http://www.w3.org/2000/svg" viewBox="0 0 14.47 13.82"><defs><style>.cls-1{fill:#808081;}</style></defs><title>icon-editar</title><path class="cls-1" d="M14,7.26h.85V13a1.67,1.67,0,0,1-1.81,1.82c-3.8,0-7.6,0-11.4,0-.5,0-.67-.19-.67-.68q0-6,0-12c0-.43.1-.71.6-.71H9.14a.68.68,0,0,1,.17,0V2.3H1.89V14h11c.81,0,1.08-.27,1.09-1.09V7.26Z" transform="translate(-1 -1)"/><path class="cls-1" d="M15.47,3.74a5.53,5.53,0,0,1-.66,1.19c-1.9,2-3.83,3.87-5.76,5.79a.92.92,0,0,1-.39.23c-1.2.33-2.41.64-3.61,1-.56.15-.82-.09-.67-.64q.45-1.75,1-3.51a1.38,1.38,0,0,1,.36-.55l5.55-5.55a1.72,1.72,0,0,1,2.73,0,7.49,7.49,0,0,1,.84.85,11.19,11.19,0,0,1,.65,1.21m-4.34-.62L6.49,7.75l2.09,2.1,4.64-4.62L11.13,3.12m.67-.73,2.14,2.17c.71-.57.73-1,.09-1.61l-.66-.66c-.63-.62-1.07-.58-1.57.1M5.37,10.94l2.18-.6L6,8.7l-.6,2.24" transform="translate(-1 -1)"/><path class="cls-1" d="M11.12,4.78l.44.43L8.83,8l-.42-.47,2.71-2.71" transform="translate(-1 -1)"/></svg>