<svg id="Capa_1" data-name="Capa 1" xmlns="http://www.w3.org/2000/svg" viewBox="0 0 14.25 14.25"><defs><style>.cls-1{fill:#003e4c;stroke:#003e4c;stroke-miterlimit:10;stroke-width:0.25px;}.cls-1,.cls-2{fill-rule:evenodd;}.cls-2{fill:#fff;}</style></defs><title>icon-messenger</title><g id="logo"><path id="Path" class="cls-1" d="M8,.83A6.76,6.76,0,0,0,1,7.62a6.65,6.65,0,0,0,2.2,5,.61.61,0,0,1,.19.4l0,1.24a.57.57,0,0,0,.79.5l1.39-.61a.48.48,0,0,1,.37,0,7.9,7.9,0,0,0,2,.27A6.79,6.79,0,1,0,8,.83Z" transform="translate(-0.88 -0.7)"/><path id="Path-2" data-name="Path" class="cls-2" d="M3.8,9.6,5.85,6.34a1.05,1.05,0,0,1,1.52-.28L9,7.29a.42.42,0,0,0,.5,0l2.21-1.68a.33.33,0,0,1,.48.44l-2,3.26a1.05,1.05,0,0,1-1.52.28L7,8.37a.42.42,0,0,0-.5,0L4.28,10.05A.33.33,0,0,1,3.8,9.6Z" transform="translate(-0.88 -0.7)"/></g></svg>