<svg id="Capa_1" data-name="Capa 1" xmlns="http://www.w3.org/2000/svg" viewBox="0 0 14 14"><defs><style>.cls-1{fill:#fbfdfd;}</style></defs><title>icon-expand</title><g id="ThVRcr"><path class="cls-1" d="M15,5.73a.8.8,0,0,1-.13.22.43.43,0,0,1-.74-.3V4.36c0-.48,0-1,0-1.44V2.79L9.45,7.49l-.63-.63L13.5,2.17v0H10.64a.42.42,0,0,1-.44-.51.45.45,0,0,1,.34-.36h4.09a.57.57,0,0,1,.37.34Z" transform="translate(-1 -1.27)"/><path class="cls-1" d="M1,10.81a.5.5,0,0,1,.28-.32.43.43,0,0,1,.59.42c0,.44,0,.88,0,1.32s0,.93,0,1.4v.13l4.69-4.7.62.62Q4.85,12,2.49,14.36v0H5.32a.44.44,0,0,1,.4.17.43.43,0,0,1-.16.66l-.08,0H1.37A.53.53,0,0,1,1,14.93Z" transform="translate(-1 -1.27)"/></g></svg>