<svg id="Capa_1" data-name="Capa 1" xmlns="http://www.w3.org/2000/svg" viewBox="0 0 14.12 14.12"><defs><style>.cls-1{fill:#f8b122;}</style></defs><title>icon-mts</title><path class="cls-1" d="M14.72,1H1.16a.29.29,0,0,0-.28.28V14.84a.29.29,0,0,0,.28.28h8.1a.3.3,0,0,0,.3-.25.29.29,0,0,0-.28-.31H1.44V7.94h4v2.65a.3.3,0,0,0,.25.3A.29.29,0,0,0,6,10.61V4.79A.28.28,0,0,0,5.7,4.5a.27.27,0,0,0-.3.27V7.38h-4V1.56H9.12V5.12a.28.28,0,0,0,.28.28h2.93a.29.29,0,0,0,.29-.26.28.28,0,0,0-.28-.3H9.67V1.56h4.71v8.79H9.48a.28.28,0,0,0-.29.26.27.27,0,0,0,.28.3h4.91v3.65h-2a.28.28,0,0,0-.29.26.27.27,0,0,0,.27.3h2.31a.29.29,0,0,0,.28-.28V1.28A.29.29,0,0,0,14.72,1Z" transform="translate(-0.88 -1)"/></svg>