<svg id="Capa_1" data-name="Capa 1" xmlns="http://www.w3.org/2000/svg" viewBox="0 0 14 8"><defs><style>.cls-1{fill:#f8b122;}</style></defs><title>icon-habitacion</title><path class="cls-1" d="M14.79,13a.28.28,0,0,1-.31-.3V11.26h-13v1.42a.3.3,0,0,1-.21.31A.27.27,0,0,1,1,12.7v-6a.29.29,0,0,1,.21-.31.27.27,0,0,1,.31.29V7.83h8.4a.28.28,0,0,1,.26.3v.53H11.5a2.09,2.09,0,0,1,1.95-2h1V5.32A.29.29,0,0,1,14.69,5,.27.27,0,0,1,15,5.3v7.34A.32.32,0,0,1,14.79,13Zm-4.61-2.3h4.3V9.27h-4.3Zm-8.66,0H9.66V8.36H1.52Zm10.57-2h2.39V7.29h-1A1.5,1.5,0,0,0,12.09,8.66Z" transform="translate(-1 -5)"/></svg>