<svg id="Capa_1" data-name="Capa 1" xmlns="http://www.w3.org/2000/svg" viewBox="0 0 14.22 14.33"><defs><style>.cls-1{fill:#808081;}</style></defs><title>icon-trash</title><path class="cls-1" d="M9.86,1a1.56,1.56,0,0,1,.48.14.87.87,0,0,1,.5.76v.89h3.24a1.26,1.26,0,0,1,.7.18.82.82,0,0,1,.43.69c0,.32,0,.64,0,1a1,1,0,0,1-.88.85l-.21,0v8a1.91,1.91,0,0,1-1.73,1.78,3,3,0,0,1-.42,0H4.23a2.31,2.31,0,0,1-1.58-.6,1.62,1.62,0,0,1-.54-.94,1.23,1.23,0,0,1,0-.27v-8H1.93A1,1,0,0,1,1,4.71a.25.25,0,0,1,0-.08v-1A1,1,0,0,1,2,2.8H5.38V2.71c0-.28,0-.56,0-.84A1,1,0,0,1,6.31,1H9.86ZM13,5.48H3.18v8a.58.58,0,0,0,0,.19,1.08,1.08,0,0,0,1.08.73h7.6l.27,0a1,1,0,0,0,.87-.92v-8ZM8.12,3.69H2.63a.5.5,0,0,0-.54.44.51.51,0,0,0,.54.45h11a.51.51,0,0,0,.54-.43.49.49,0,0,0-.53-.46H8.12m1.63-.9V2.36A.49.49,0,0,0,9.2,1.9c-.73,0-1.46,0-2.18,0a.5.5,0,0,0-.54.36,4.68,4.68,0,0,0,0,.53Z" transform="translate(-1 -1)"/><path class="cls-1" d="M7.56,9.69v-3A.52.52,0,0,1,8,6.13a.55.55,0,0,1,.65.4,1.1,1.1,0,0,1,0,.18v6a.55.55,0,0,1-1.09.16,1.09,1.09,0,0,1,0-.18v-3" transform="translate(-1 -1)"/><path class="cls-1" d="M5.92,9.71v3a.51.51,0,0,1-.27.49.54.54,0,0,1-.55,0,.47.47,0,0,1-.27-.46c0-.57,0-1.15,0-1.72V7.54c0-.3,0-.6,0-.9a.51.51,0,0,1,.43-.51.54.54,0,0,1,.65.43.66.66,0,0,1,0,.14v3" transform="translate(-1 -1)"/><path class="cls-1" d="M10.3,9.69v-3a.52.52,0,0,1,.38-.53.54.54,0,0,1,.71.52v6.06a.53.53,0,0,1-.42.55.55.55,0,0,1-.67-.45V9.69" transform="translate(-1 -1)"/></svg>