<svg id="Capa_1" data-name="Capa 1" xmlns="http://www.w3.org/2000/svg" viewBox="0 0 14.13 10.91"><defs><style>.cls-1{fill:#f8b122;}</style></defs><title>icon-auto</title><path class="cls-1" d="M13.5,13.86H11.86a.3.3,0,0,1-.3-.29V12.22H4.31v1.35a.29.29,0,0,1-.3.29H2.44a.3.3,0,0,1-.3-.29V12.22h-1a.3.3,0,0,1-.3-.3V8.17A1.57,1.57,0,0,1,2.14,6.64V5.82A2.88,2.88,0,0,1,5,3h5.92A2.87,2.87,0,0,1,13.8,5.82v.82A1.53,1.53,0,0,1,15,8.17v3.75a.29.29,0,0,1-.3.3h-.9v1.35A.29.29,0,0,1,13.5,13.86Zm-1.34-.59h1v-1h-1Zm-9.42,0h1v-1h-1Zm10.71-1.65h1V8.18a1,1,0,0,0-1-1h-11a1,1,0,0,0-1,1v3.44Zm-1.56-5h1.32V5.82a2.28,2.28,0,0,0-2.28-2.27H5A2.27,2.27,0,0,0,2.74,5.82v.79h6.1a1.56,1.56,0,0,1,3.05,0ZM9.42,6.54h1.81a.94.94,0,0,0-.9-.65A1,1,0,0,0,9.42,6.54Zm3.23,4.27A1.11,1.11,0,1,1,13.76,9.7,1.11,1.11,0,0,1,12.65,10.81Zm0-1.61a.51.51,0,1,0,.51.5A.51.51,0,0,0,12.65,9.2Zm-1.89,1.6H5.13a.31.31,0,0,1-.3-.24.3.3,0,0,1,.29-.36h5.63a.3.3,0,0,1,.3.24A.29.29,0,0,1,10.76,10.8Zm-7.53,0A1.11,1.11,0,1,1,4.33,9.7,1.11,1.11,0,0,1,3.23,10.81Zm0-1.61a.51.51,0,1,0,.5.5A.5.5,0,0,0,3.23,9.2Zm7.53,0H5.13A.31.31,0,0,1,4.83,9a.3.3,0,0,1,.29-.36h5.63a.3.3,0,0,1,.3.24A.29.29,0,0,1,10.76,9.23Z" transform="translate(-0.87 -2.95)"/></svg>