<svg id="Capa_1" data-name="Capa 1" xmlns="http://www.w3.org/2000/svg" viewBox="0 0 14.4 14.39"><defs><style>.cls-1{fill:#003e4c;stroke:#003e4c;stroke-miterlimit:10;stroke-width:0.25px;}.cls-2{fill:#f2f3f7;}</style></defs><title>icon-telefono</title><path class="cls-1" d="M15,8h0V7.68a4.56,4.56,0,0,1-.08-.47,8,8,0,0,0-.21-1,6.88,6.88,0,0,0-4.09-4.61l0,0-.07,0a9.28,9.28,0,0,0-1.67-.47L8.68,1H7.09l-.34.08c-.29.07-.59.13-.86.21A7,7,0,0,0,2.05,4.14H2v0a6.59,6.59,0,0,0-.58,1A7.15,7.15,0,0,0,.88,7.48h0a6.86,6.86,0,0,0,.71,3.66,1.53,1.53,0,0,1,.12,1.2c-.23.77-.44,1.55-.64,2.3L1,15.09,1.28,15c.64-.17,1.27-.34,1.89-.53a3.05,3.05,0,0,1,2.16.1A7.06,7.06,0,0,0,9.12,15h0a6.83,6.83,0,0,0,2.17-.75,7,7,0,0,0,2.1-1.77h0v0a7.07,7.07,0,0,0,1.43-3.1c0-.22.07-.43.1-.64L15,8.36V8ZM5.08,2.12l-1.54,1A6.48,6.48,0,0,1,5.08,2.12Z" transform="translate(-0.73 -0.88)"/><path class="cls-2" d="M11.46,10a.5.5,0,0,0-.24-.32L9.83,8.85h0a.47.47,0,0,0-.24-.05.57.57,0,0,0-.38.14h0l-.41.41H8.68a1.39,1.39,0,0,1-.22-.09A3.25,3.25,0,0,1,8.05,9a4.71,4.71,0,0,1-.56-.51A3.82,3.82,0,0,1,7,7.92a2.38,2.38,0,0,1-.26-.4,1.17,1.17,0,0,1-.12-.3h0L7,6.86a.54.54,0,0,0,.15-.29.45.45,0,0,0,0-.34L6.3,4.77h0a.87.87,0,0,0-.16-.17.41.41,0,0,0-.24-.08.47.47,0,0,0-.32.14l-1,1a.62.62,0,0,0-.15.2.9.9,0,0,0-.08.25h0a1.13,1.13,0,0,1,0,.14,3.14,3.14,0,0,0,0,.38c0,.16.08.35.14.56a4.33,4.33,0,0,0,.32.72,6.9,6.9,0,0,0,.54.86,8.79,8.79,0,0,0,.85,1,7.93,7.93,0,0,0,1.22,1,6,6,0,0,0,1,.56,3.19,3.19,0,0,0,.78.24,2.48,2.48,0,0,0,.46.05h.16a.73.73,0,0,0,.24-.07.62.62,0,0,0,.2-.15l1-.95a.46.46,0,0,0,.14-.39ZM8.13,9.34Zm2.1,0-.05,0,.1.06Z" transform="translate(-0.73 -0.88)"/></svg>