<svg id="Capa_1" data-name="Capa 1" xmlns="http://www.w3.org/2000/svg" viewBox="0 0 13.84 13.8"><defs><style>.cls-1{fill:#adadad;}</style></defs><title>icon-whatsapp-alt</title><path class="cls-1" d="M10.43,12.22A4,4,0,0,1,9,11.87a7,7,0,0,1-1.23-.67A9.2,9.2,0,0,1,6.27,10a9.17,9.17,0,0,1-1-1.16,7.38,7.38,0,0,1-.65-1,4.64,4.64,0,0,1-.37-.86,3.65,3.65,0,0,1-.17-.67,2,2,0,0,1,0-.45,1.6,1.6,0,0,0,0-.17v0a.88.88,0,0,1,.09-.29.76.76,0,0,1,.18-.24L5.45,4a.53.53,0,0,1,.38-.17.45.45,0,0,1,.29.1.81.81,0,0,1,.18.19h0l.92,1.75a.55.55,0,0,1,0,.4.62.62,0,0,1-.18.35L6.68,7h0V7a1.71,1.71,0,0,0,.13.35,4.1,4.1,0,0,0,.31.48,5.41,5.41,0,0,0,.6.67,5.41,5.41,0,0,0,.67.6,3.66,3.66,0,0,0,.48.31.87.87,0,0,0,.28.11l.08,0h0l.48-.5h0a.67.67,0,0,1,.46-.18.58.58,0,0,1,.28.06h0l1.66,1a.53.53,0,0,1,.28.38h0a.57.57,0,0,1-.17.47l-1.14,1.13a.8.8,0,0,1-.25.18,1.52,1.52,0,0,1-.28.09h-.19M4.33,5.67a1.26,1.26,0,0,1,0,.16,2.31,2.31,0,0,0,0,.4,4.19,4.19,0,0,0,.15.62,5.42,5.42,0,0,0,.36.82,6.75,6.75,0,0,0,.62,1,9.48,9.48,0,0,0,1,1.12A9.78,9.78,0,0,0,7.88,11a7.92,7.92,0,0,0,1.18.64,3.29,3.29,0,0,0,.86.27,3.21,3.21,0,0,0,.51.05h.15a.6.6,0,0,0,.2-.07.45.45,0,0,0,.15-.11l1.16-1.14a.3.3,0,0,0,.08-.22A.32.32,0,0,0,12,10.2l-1.64-1h0a.28.28,0,0,0-.16,0,.39.39,0,0,0-.26.09l-.49.5a.3.3,0,0,1-.11.07.31.31,0,0,1-.13,0l-.11,0a1.39,1.39,0,0,1-.35-.14,4.15,4.15,0,0,1-.52-.33,6.08,6.08,0,0,1-.71-.63A5.27,5.27,0,0,1,6.88,8c-.14-.2-.25-.38-.33-.52a2.13,2.13,0,0,1-.17-.45V7a.52.52,0,0,1,0-.11.3.3,0,0,1,.07-.11l.42-.42A.43.43,0,0,0,7,6.18.35.35,0,0,0,7,6L6.05,4.24a.43.43,0,0,0-.11-.12.2.2,0,0,0-.11,0,.23.23,0,0,0-.17.07L4.51,5.31a.46.46,0,0,0-.11.16.53.53,0,0,0-.07.2M6.68,7h0Z" transform="translate(-1.16 -1)"/><path class="cls-1" d="M14.86,9.15q.06-.32.09-.63L15,8.21V7.55a4.56,4.56,0,0,1-.08-.47,7.84,7.84,0,0,0-.21-1A6.82,6.82,0,0,0,9,1.05.58.58,0,0,1,8.82,1H7.27l-.34.08c-.28.06-.57.13-.84.21a6.88,6.88,0,0,0-4.21,9.65A1.53,1.53,0,0,1,2,12.12c-.23.75-.43,1.52-.63,2.26l-.11.42.32-.09c.62-.16,1.25-.32,1.85-.51a2.92,2.92,0,0,1,2.11.1A6.84,6.84,0,0,0,11.37,14a7,7,0,0,0,3.49-4.81M9,14.26a6.07,6.07,0,0,1-4.13-.8.35.35,0,0,0-.33,0l-1.3.35-1.3.34.34-1.22c.12-.45.23-.87.36-1.29a.43.43,0,0,0,0-.38A6.42,6.42,0,0,1,6.69,1.61,6.45,6.45,0,0,1,14.43,7,6.46,6.46,0,0,1,9,14.26" transform="translate(-1.16 -1)"/></svg>