<svg id="Capa_1" data-name="Capa 1" xmlns="http://www.w3.org/2000/svg" viewBox="0 0 14.54 14.45"><defs><style>.cls-1{fill:#288b99;}.cls-2{fill:#fdfdfd;}</style></defs><title>icon-editar-actividad</title><ellipse class="cls-1" cx="7.27" cy="7.22" rx="7.27" ry="7.22"/><path class="cls-2" d="M11.68,6.16,10.39,4.87a.26.26,0,0,0-.16-.07.21.21,0,0,0-.15.07l-1,1L5.18,9.77l0,0h0a0,0,0,0,0,0,0h0l-.53,1.83a.21.21,0,0,0,.06.21A.21.21,0,0,0,4.8,12h.06l1.83-.53h0l0,0,3.93-3.93,1-1A.21.21,0,0,0,11.68,6.16ZM5.44,10.33l.77.78-1.09.32Zm1.19.58-1-1L9.26,6.3,10,7l.3.3ZM10.56,7l-.3-.3L9.57,6l.66-.66,1,1Z" transform="translate(-0.97 -1)"/></svg>