<svg id="Capa_1" data-name="Capa 1" xmlns="http://www.w3.org/2000/svg" viewBox="0 0 12 12"><defs><style>.cls-1{fill:#e84129;}.cls-2{fill:#fdfdfd;}</style></defs><title>icon-danger-msj</title><circle class="cls-1" cx="8" cy="8" r="6" transform="translate(-3.62 11.95) rotate(-76.72)"/><g id="Piit3G"><path class="cls-2" d="M5.59,8.53,7.45,5.29A.79.79,0,0,1,8.61,5a1.1,1.1,0,0,1,.26.31q1.24,2.13,2.47,4.26a1.49,1.49,0,0,1,.19.43c.09.69-.51.82-1,.82-1.6,0-3.2,0-4.8,0a1.51,1.51,0,0,1-.3,0,.75.75,0,0,1-.62-.8A4.48,4.48,0,0,1,5.59,8.53Zm2.57,1.86h2.49a.41.41,0,0,0,.4-.2.42.42,0,0,0,0-.43L9.92,7.85,8.55,5.47a.42.42,0,0,0-.44-.25.45.45,0,0,0-.32.25c-.36.64-.73,1.28-1.1,1.91C6.24,8.17,5.78,9,5.32,9.75a.42.42,0,0,0,0,.48.43.43,0,0,0,.38.16Z" transform="translate(-2 -2)"/><path class="cls-2" d="M8.36,6.78V8.69H8V6.78Z" transform="translate(-2 -2)"/><path class="cls-2" d="M8.43,9.36a.26.26,0,0,1-.25.25.25.25,0,0,1-.26-.26.24.24,0,0,1,.26-.25A.26.26,0,0,1,8.43,9.36Z" transform="translate(-2 -2)"/></g></svg>