<svg id="Capa_1" data-name="Capa 1" xmlns="http://www.w3.org/2000/svg" viewBox="0 0 13.62 13.61"><defs><style>.cls-1{fill:#fbfdfd;}</style></defs><title>icon-telefono1</title><g id="_Grupo_" data-name="&lt;Grupo&gt;"><path class="cls-1" d="M11.34,15a6.86,6.86,0,0,1-.89-.09A7.41,7.41,0,0,1,9,14.45a13.12,13.12,0,0,1-2-1.09,14.88,14.88,0,0,1-2.35-2A15.51,15.51,0,0,1,3,9.52a14.67,14.67,0,0,1-1-1.65,10.79,10.79,0,0,1-.6-1.39A8.45,8.45,0,0,1,1.06,5.4,3.62,3.62,0,0,1,1,4.66c0-.15,0-.24,0-.27v0a1.38,1.38,0,0,1,.15-.46,1,1,0,0,1,.29-.4L3.3,1.65a.85.85,0,0,1,.61-.26.75.75,0,0,1,.46.15,1.14,1.14,0,0,1,.3.32v0L6.17,4.7a.91.91,0,0,1,.09.65,1.13,1.13,0,0,1-.3.56l-.67.67h0v0a2.06,2.06,0,0,0,.22.57A6,6,0,0,0,6,8,8.31,8.31,0,0,0,7,9,8.49,8.49,0,0,0,8,10a7.06,7.06,0,0,0,.79.51,2.43,2.43,0,0,0,.44.18l.13,0h0l.78-.79h0A1.07,1.07,0,0,1,11,9.63a1,1,0,0,1,.46.09l.05,0,2.69,1.59a.93.93,0,0,1,.46.62h0a.87.87,0,0,1-.26.76L12.5,14.56a1.5,1.5,0,0,1-.39.28,1.68,1.68,0,0,1-.47.14h-.3ZM1.49,4.42s0,.13,0,.27a3.24,3.24,0,0,0,.05.63,7,7,0,0,0,.25,1,9.73,9.73,0,0,0,.57,1.32,13.78,13.78,0,0,0,1,1.59A15.21,15.21,0,0,0,5,11.05,14.4,14.4,0,0,0,7.23,13a11.77,11.77,0,0,0,1.9,1,6.4,6.4,0,0,0,1.39.43,6.11,6.11,0,0,0,.82.09h.24a1,1,0,0,0,.32-.1.86.86,0,0,0,.26-.18L14,12.38a.38.38,0,0,0,.12-.35.44.44,0,0,0-.24-.29l-2.64-1.57,0,0A.57.57,0,0,0,11,10.1a.6.6,0,0,0-.42.16l-.79.8a.4.4,0,0,1-.18.11.42.42,0,0,1-.21,0l-.18,0a2.7,2.7,0,0,1-.56-.22,7,7,0,0,1-.84-.54,10.44,10.44,0,0,1-1.15-1,9.3,9.3,0,0,1-1-1.14,5.74,5.74,0,0,1-.53-.84,2.76,2.76,0,0,1-.27-.73.09.09,0,0,1,0,0,.45.45,0,0,1,0-.18.39.39,0,0,1,.1-.18l.68-.68a.67.67,0,0,0,.18-.33.44.44,0,0,0,0-.32L4.26,2.11a.63.63,0,0,0-.17-.19.28.28,0,0,0-.18-.06A.38.38,0,0,0,3.63,2L1.78,3.84a.83.83,0,0,0-.19.26A1.46,1.46,0,0,0,1.49,4.42Zm7.94,6.29ZM5.28,6.59Zm0,0Z" transform="translate(-1 -1.39)"/></g></svg>