<svg id="Capa_1" data-name="Capa 1" xmlns="http://www.w3.org/2000/svg" viewBox="0 0 10.54 12"><defs><style>.cls-1{fill:#003e4c;}</style></defs><title>icon-modal-creditos</title><path class="cls-1" d="M4.74,14H3.15A.15.15,0,0,1,3,13.85V9.4a.15.15,0,0,1,.15-.15H4.74a.15.15,0,0,1,.15.15v4.45A.15.15,0,0,1,4.74,14Zm-1.45-.29h1.3V9.54H3.29Z" transform="translate(-3 -2)"/><path class="cls-1" d="M7.34,11.45a.13.13,0,0,1-.14-.1.14.14,0,0,1,.09-.19l1.14-.35H8.5l2.13.3a.28.28,0,0,0,.31-.21l0-.08a.28.28,0,0,0-.21-.33L8.5,10a.76.76,0,0,0-.3,0l-3.43.63a.16.16,0,0,1-.18-.12.15.15,0,0,1,.12-.17l3.44-.63a.85.85,0,0,1,.42,0l2.25.53a.57.57,0,0,1,.42.68l0,.08a.56.56,0,0,1-.63.43l-2.1-.29-1.11.34Z" transform="translate(-3 -2)"/><path class="cls-1" d="M7.19,13.13A20.47,20.47,0,0,1,4.72,13a.15.15,0,0,1-.13-.16.15.15,0,0,1,.17-.13,20.79,20.79,0,0,0,7.85-.58l.44-.12a.28.28,0,0,0,.2-.24.28.28,0,0,0-.28-.3l-2.36-.06a.15.15,0,0,1-.15-.15.15.15,0,0,1,.15-.14h0l2.37.05h0a.59.59,0,0,1,.26.07.58.58,0,0,1,.3.57.57.57,0,0,1-.42.48l-.43.12A21,21,0,0,1,7.19,13.13Z" transform="translate(-3 -2)"/><path class="cls-1" d="M8.25,6a1,1,0,0,1-.84-.43.15.15,0,0,1,0-.21.15.15,0,0,1,.21,0,.8.8,0,0,0,1,.22h0a.39.39,0,0,0,.21-.39.47.47,0,0,0-.33-.4l-.63-.19A.64.64,0,0,1,7.39,4c0-.16.07-.67.88-.67h0a.89.89,0,0,1,.87.59.16.16,0,0,1-.1.19A.15.15,0,0,1,8.88,4a.6.6,0,0,0-.59-.39c-.28,0-.6.06-.6.38,0,.14,0,.29.3.37l.64.19a.8.8,0,0,1,.53.65.69.69,0,0,1-.38.69A1.26,1.26,0,0,1,8.25,6Z" transform="translate(-3 -2)"/><path class="cls-1" d="M8.29,3.64a.15.15,0,0,1-.14-.15V3a.14.14,0,0,1,.14-.14A.15.15,0,0,1,8.44,3v.5A.15.15,0,0,1,8.29,3.64Z" transform="translate(-3 -2)"/><path class="cls-1" d="M8.29,6.57a.15.15,0,0,1-.14-.15v-.5a.15.15,0,0,1,.14-.15.15.15,0,0,1,.15.15v.5A.15.15,0,0,1,8.29,6.57Z" transform="translate(-3 -2)"/><path class="cls-1" d="M8.27,7.55A2.78,2.78,0,1,1,11,4.77,2.78,2.78,0,0,1,8.27,7.55Zm0-5.26a2.48,2.48,0,1,0,2.48,2.48A2.49,2.49,0,0,0,8.27,2.29Z" transform="translate(-3 -2)"/></svg>