<svg id="Capa_1" data-name="Capa 1" xmlns="http://www.w3.org/2000/svg" xmlns:xlink="http://www.w3.org/1999/xlink" viewBox="0 0 12.54 12.02"><defs><style>.cls-1{fill:none;}.cls-2{clip-path:url(#clip-path);}.cls-3{fill:#003e4c;}.cls-4{fill:#fff;}.cls-5{fill:#e84129;}</style><clipPath id="clip-path" transform="translate(-2 -2)"><rect class="cls-1" x="2" y="2" width="12.58" height="12.05"/></clipPath></defs><title>icon-modal-eliminar-propiedad</title><g class="cls-2"><path class="cls-3" d="M14.47,8.11l-6.05-6A.2.2,0,0,0,8.27,2a.25.25,0,0,0-.16.06l-6,6a.23.23,0,0,0,.16.38H3.77V13.8A.22.22,0,0,0,4,14h8.56a.22.22,0,0,0,.22-.22V8.49h1.55a.22.22,0,0,0,.2-.14.2.2,0,0,0,0-.24Zm-1.92-.06a.22.22,0,0,0-.22.22v5.31H4.21V8.27A.22.22,0,0,0,4,8.05H2.74L8.27,2.53l5.52,5.52Zm0,0" transform="translate(-2 -2)"/></g><circle class="cls-4" cx="9.45" cy="3.38" r="2.12"/><path class="cls-5" d="M12.89,3.83a2.12,2.12,0,1,0,.11,3A2.12,2.12,0,0,0,12.89,3.83Zm-2.78.3a1.82,1.82,0,0,1,2.43-.21L10.07,6.58A1.84,1.84,0,0,1,10.11,4.13Zm.24,2.71,2.48-2.66a1.83,1.83,0,0,1-2.48,2.66Z" transform="translate(-2 -2)"/></svg>