<svg id="Capa_1" data-name="Capa 1" xmlns="http://www.w3.org/2000/svg" viewBox="0 0 14.69 12.12"><defs><style>.cls-1{fill:#fff;}</style></defs><title>icon-megafono</title><path class="cls-1" d="M6.2,14.12H5.73a.91.91,0,0,1-.91-.9V9.44a.2.2,0,0,1,.2-.2H6.9a.2.2,0,0,1,.2.2v3.78A.91.91,0,0,1,6.2,14.12Zm-1-4.48v3.58a.5.5,0,0,0,.51.5H6.2a.5.5,0,0,0,.5-.5V9.64Z" transform="translate(-1 -2)"/><path class="cls-1" d="M8.29,9.64H2.48A1.49,1.49,0,0,1,1,8.15V6A1.48,1.48,0,0,1,2.48,4.52H8.29a.19.19,0,0,1,.2.19V9.44A.2.2,0,0,1,8.29,9.64ZM2.48,4.91A1.08,1.08,0,0,0,1.4,6V8.15A1.08,1.08,0,0,0,2.48,9.24H8.09V4.91Z" transform="translate(-1 -2)"/><path class="cls-1" d="M15.5,12.12h-.07L8.23,9.63a.2.2,0,0,1-.14-.19V4.71a.21.21,0,0,1,.13-.19L15.43,2a.19.19,0,0,1,.18,0,.18.18,0,0,1,.08.16v9.72a.21.21,0,0,1-.08.16A.15.15,0,0,1,15.5,12.12Zm-7-2.82,6.81,2.34V2.48L8.49,4.85Z" transform="translate(-1 -2)"/></svg>