<svg id="Capa_1" data-name="Capa 1" xmlns="http://www.w3.org/2000/svg" viewBox="0 0 13.84 13.83"><defs><style>.cls-1{fill:#adadad;}</style></defs><title>icon-telefono-alt</title><path class="cls-1" d="M11.51,15.52a7,7,0,0,1-.9-.09A6.94,6.94,0,0,1,9.08,15a13.43,13.43,0,0,1-2-1.1,15,15,0,0,1-2.39-2A15.2,15.2,0,0,1,3,10,14.17,14.17,0,0,1,2,8.27a8.46,8.46,0,0,1-.61-1.41,7.11,7.11,0,0,1-.28-1.1A3.71,3.71,0,0,1,1,5c0-.15,0-.24,0-.27v0a1.36,1.36,0,0,1,.15-.47,1.43,1.43,0,0,1,.29-.41L3.34,2A.83.83,0,0,1,4,1.69a.8.8,0,0,1,.47.15,1.36,1.36,0,0,1,.3.33v0L6.25,5.06a.91.91,0,0,1,.09.65,1.12,1.12,0,0,1-.3.58L5.36,7h0V7a2.38,2.38,0,0,0,.22.58,6.25,6.25,0,0,0,.51.79,9.3,9.3,0,0,0,1,1.1,9.5,9.5,0,0,0,1.11,1A6.88,6.88,0,0,0,9,11a2.21,2.21,0,0,0,.45.18l.13,0h0l.79-.81h0a1.13,1.13,0,0,1,.76-.29,1,1,0,0,1,.46.1l.05,0,2.73,1.61a.94.94,0,0,1,.47.63v0a.87.87,0,0,1-.26.76l-1.88,1.87a1.38,1.38,0,0,1-.4.29,2.21,2.21,0,0,1-.48.15h-.3M1.5,4.77s0,.13,0,.27a2.91,2.91,0,0,0,.06.65,6.11,6.11,0,0,0,.26,1,7.64,7.64,0,0,0,.58,1.34,12.7,12.7,0,0,0,1,1.62A15.11,15.11,0,0,0,5,11.5a14.42,14.42,0,0,0,2.31,1.95,12.05,12.05,0,0,0,1.93,1.06,6.15,6.15,0,0,0,1.42.44,6.05,6.05,0,0,0,.83.09h.24a1.07,1.07,0,0,0,.33-.11.86.86,0,0,0,.26-.18l1.89-1.88a.43.43,0,0,0,.13-.35.54.54,0,0,0-.24-.31l-2.7-1.58-.05,0a.49.49,0,0,0-.25-.05.65.65,0,0,0-.43.16l-.8.82a.68.68,0,0,1-.19.11.48.48,0,0,1-.22,0l-.17,0a2.23,2.23,0,0,1-.57-.23,6.17,6.17,0,0,1-.86-.55,8.87,8.87,0,0,1-1.17-1,9.49,9.49,0,0,1-1-1.16,5.64,5.64,0,0,1-.55-.86,2.69,2.69,0,0,1-.27-.74.06.06,0,0,1,0,0,.46.46,0,0,1,0-.19A.37.37,0,0,1,5,6.64L5.7,6a.58.58,0,0,0,.17-.34.39.39,0,0,0,0-.32L4.32,2.42a.66.66,0,0,0-.18-.19A.28.28,0,0,0,4,2.17a.35.35,0,0,0-.28.13L1.79,4.18a.77.77,0,0,0-.19.27,1,1,0,0,0-.1.32M5.35,7h0" transform="translate(-1 -1.69)"/></svg>