<svg id="Capa_1" data-name="Capa 1" xmlns="http://www.w3.org/2000/svg" viewBox="0 0 13.96 13.96"><defs><style>.cls-1{fill:#003e4c;}.cls-2{fill:#fbfdfd;}</style></defs><title>icon-email-timeline</title><circle class="cls-1" cx="7.98" cy="8.01" r="6.98" transform="matrix(0.23, -0.97, 0.97, 0.23, -2.63, 12.94)"/><path class="cls-2" d="M10.81,10.11l-5.61.08a.09.09,0,0,1-.08-.08L5.06,6.42a.09.09,0,0,1,.09-.09l5.6-.08a.09.09,0,0,1,.09.08L10.89,10A.08.08,0,0,1,10.81,10.11ZM5.28,10l5.44-.08-.05-3.52L5.23,6.5Z" transform="translate(-1 -1.03)"/><path class="cls-2" d="M8,9a.07.07,0,0,1-.06,0L5.09,6.48a.1.1,0,0,1,0-.09.08.08,0,0,1,.08-.06l5.6-.08a.08.08,0,0,1,.08,0,.08.08,0,0,1,0,.1L8.05,9A.07.07,0,0,1,8,9ZM5.37,6.5,8,8.81l2.55-2.39Z" transform="translate(-1 -1.03)"/><path class="cls-2" d="M10.81,10.11l-5.61.08a.08.08,0,0,1-.08-.06.08.08,0,0,1,0-.09l2.2-1.7a.08.08,0,0,1,.12,0,.08.08,0,0,1,0,.11L5.45,10l5.1-.08-2-1.46a.09.09,0,1,1,.1-.14L10.86,10a.08.08,0,0,1,0,.09A.1.1,0,0,1,10.81,10.11Z" transform="translate(-1 -1.03)"/></svg>