<svg id="Capa_1" data-name="Capa 1" xmlns="http://www.w3.org/2000/svg" viewBox="0 0 11 13.81"><defs><style>.cls-1{fill:#fbfdfd;}</style></defs><title>icon-upload</title><path class="cls-1" d="M3,8.1v-5A1.72,1.72,0,0,1,4.93,1.2h5.73a.86.86,0,0,1,.68.28c.79.81,1.61,1.61,2.4,2.43a1,1,0,0,1,.25.61q0,4.32,0,8.66A1.71,1.71,0,0,1,12.16,15H4.82A1.7,1.7,0,0,1,3,13.18V8.1m7.58-6.23H4.88a1,1,0,0,0-1.19,1.2v10c0,.82.39,1.2,1.22,1.21H12.1c.83,0,1.21-.39,1.21-1.21V4.64H11.1c-.44,0-.52-.08-.52-.52V1.87m.69.59V3.92h1.48L11.27,2.46" transform="translate(-3 -1.19)"/><path class="cls-1" d="M8.48,7.3V8.69c0,1,0,2.06,0,3.09,0,.23-.05.44-.32.45s-.36-.2-.36-.45V7.3l-.1-.06L6.51,8.51c-.07.07-.14.18-.22.19a.63.63,0,0,1-.44-.06.43.43,0,0,1,0-.41c.68-.71,1.37-1.41,2.08-2.08a.48.48,0,0,1,.5,0c.68.63,1.34,1.29,2,2a.54.54,0,0,1,0,.51c-.15.21-.36.12-.53-.06-.44-.45-.89-.9-1.33-1.36l-.1,0" transform="translate(-3 -1.19)"/></svg>