<svg id="Capa_1" data-name="Capa 1" xmlns="http://www.w3.org/2000/svg" viewBox="0 0 13.15 13.12"><defs><style>.cls-1{fill:#003e4c;}</style></defs><title>icon-whatsapp-primary</title><g id="_Grupo_" data-name="&lt;Grupo&gt;"><path class="cls-1" d="M11,11.31a3.21,3.21,0,0,1-.52-.05A4.23,4.23,0,0,1,9.63,11a7,7,0,0,1-1.17-.64A8,8,0,0,1,7.08,9.18a7.65,7.65,0,0,1-1-1.09,7.29,7.29,0,0,1-.62-1,4.19,4.19,0,0,1-.35-.82A3.42,3.42,0,0,1,5,5.67a2,2,0,0,1,0-.44,1.36,1.36,0,0,0,0-.16H5a.76.76,0,0,1,.09-.28.66.66,0,0,1,.17-.23L6.3,3.46a.51.51,0,0,1,.36-.15.42.42,0,0,1,.27.09.77.77,0,0,1,.18.18h0L8,5.26a.54.54,0,0,1,0,.38A.65.65,0,0,1,7.87,6l-.4.39h0a1.07,1.07,0,0,0,.13.33,3.58,3.58,0,0,0,.29.47,5.54,5.54,0,0,0,.56.63,5.74,5.74,0,0,0,.64.57,4.85,4.85,0,0,0,.46.3,1.4,1.4,0,0,0,.26.1l.08,0h0l.46-.46h0a.63.63,0,0,1,.43-.17.54.54,0,0,1,.27.06h0l1.58.94a.54.54,0,0,1,.27.36h0a.53.53,0,0,1-.16.44l-1.09,1.08a.72.72,0,0,1-.23.17.92.92,0,0,1-.27.08H11ZM5.24,5.09s0,.08,0,.16a1.32,1.32,0,0,0,0,.37,5.23,5.23,0,0,0,.15.6A5.23,5.23,0,0,0,5.75,7a6.1,6.1,0,0,0,.59.93A8.67,8.67,0,0,0,7.28,9a8.35,8.35,0,0,0,1.33,1.13,7.17,7.17,0,0,0,1.12.61,3.32,3.32,0,0,0,.82.25A3.17,3.17,0,0,0,11,11h.14a.7.7,0,0,0,.19-.06.58.58,0,0,0,.15-.11l1.1-1.09a.22.22,0,0,0,.07-.2.27.27,0,0,0-.14-.18L11,8.47h0a.3.3,0,0,0-.15,0,.33.33,0,0,0-.24.1L10.09,9,10,9.06a.3.3,0,0,1-.12,0l-.1,0a1.32,1.32,0,0,1-.33-.14,3.13,3.13,0,0,1-.5-.31A6.51,6.51,0,0,1,8.26,8a5.41,5.41,0,0,1-.6-.67,3.45,3.45,0,0,1-.31-.5,1.53,1.53,0,0,1-.16-.43v0a.22.22,0,0,1,0-.11.2.2,0,0,1,.06-.11l.4-.4a.39.39,0,0,0,.1-.19.25.25,0,0,0,0-.19L6.87,3.73a.52.52,0,0,0-.1-.11.2.2,0,0,0-.11,0,.21.21,0,0,0-.16.07L5.41,4.75a.42.42,0,0,0-.11.15A.82.82,0,0,0,5.24,5.09Zm4.67,3.7ZM7.46,6.37Zm0,0Z" transform="translate(-2.23 -0.65)"/></g><g id="_669Yj9" data-name="669Yj9"><path class="cls-1" d="M15.24,8.4c0-.2.06-.4.09-.6l0-.3V6.88c0-.13,0-.29-.07-.44a5.74,5.74,0,0,0-.2-1A6.48,6.48,0,0,0,9.66.7L9.5.65H8c-.08,0-.2,0-.32.08s-.54.12-.8.2a6.54,6.54,0,0,0-4,9.17A1.47,1.47,0,0,1,3,11.22c-.22.72-.41,1.44-.6,2.14l-.11.41.31-.08c.59-.16,1.18-.32,1.76-.5a2.86,2.86,0,0,1,2,.1A6.48,6.48,0,0,0,11.93,13,6.62,6.62,0,0,0,15.24,8.4ZM9.67,13.26a7.26,7.26,0,0,1-.92.07,5.88,5.88,0,0,1-3-.84.35.35,0,0,0-.32,0l-1.23.33L3,13.11,3.27,12c.12-.43.23-.84.35-1.24a.38.38,0,0,0-.05-.35A6.09,6.09,0,0,1,7.48,1.24a6.1,6.1,0,0,1,7.35,5.08A6.15,6.15,0,0,1,9.67,13.26Z" transform="translate(-2.23 -0.65)"/></g></svg>