<svg id="Capa_1" data-name="Capa 1" xmlns="http://www.w3.org/2000/svg" viewBox="0 0 12 12.32"><defs><style>.cls-1{fill:#003e4c;}</style></defs><title>icon-refresh-primary</title><g id="loGJ39"><path class="cls-1" d="M12.7,4.11v-2c0-.22.06-.4.32-.4s.32.18.32.4V5.31H10.13c-.23,0-.43-.06-.43-.33s.2-.31.42-.31H12.2c-.24-.25-.39-.45-.58-.61A5.12,5.12,0,0,0,6,3.07,5.07,5.07,0,0,0,2.7,7.63,5.33,5.33,0,0,0,13.29,8.81c0-.22,0-.44.06-.66s.05-.48.35-.47.3.26.3.49a5.65,5.65,0,0,1-1.41,3.69,5.73,5.73,0,0,1-5.86,2A5.77,5.77,0,0,1,2.14,9.23,6,6,0,0,1,7,2.09a5.92,5.92,0,0,1,5.51,2,.4.4,0,0,1,.07.13Z" transform="translate(-2 -1.68)"/></g></svg>