<svg id="Capa_1" data-name="Capa 1" xmlns="http://www.w3.org/2000/svg" viewBox="0 0 13.19 13.84"><defs><style>.cls-1{fill:#003e4c;}</style></defs><title>icon-clip-primary</title><g id="Niu6fe"><path class="cls-1" d="M4.12,14.84A4,4,0,0,1,2.26,14,3.48,3.48,0,0,1,2,9C4.36,6.55,6.79,4.14,9.21,1.71A2.89,2.89,0,0,1,10.64,1h.68a5.81,5.81,0,0,1,1.11.48,2.51,2.51,0,0,1,.35,3.86c-.89.91-1.8,1.8-2.7,2.7L6.26,11.87a1.54,1.54,0,0,1-1.4.55A1.44,1.44,0,0,1,4.1,9.94L7,7l.39-.4c.17-.16.35-.23.54-.05s.11.37-.06.53L5.06,9.94l-.48.48a.74.74,0,0,0,0,1.1.73.73,0,0,0,1.11,0q2-2,3.94-3.93c.91-.9,1.83-1.79,2.72-2.72A1.86,1.86,0,1,0,9.6,2.28L4.68,7.2C4,7.91,3.26,8.61,2.55,9.33a2.68,2.68,0,0,0-.72,2.9,2.65,2.65,0,0,0,2.27,1.9,2.69,2.69,0,0,0,2.38-.81l4.63-4.63c.81-.81,1.62-1.61,2.42-2.42.15-.15.31-.25.51-.12s.2.37,0,.6L11.58,9.18c-1.34,1.35-2.7,2.67-4,4a4.62,4.62,0,0,1-2.7,1.63Z" transform="translate(-1 -1)"/></g></svg>