<svg id="Capa_1" data-name="Capa 1" xmlns="http://www.w3.org/2000/svg" viewBox="0 0 11.33 14.18"><defs><style>.cls-1{fill:#fbfdfd;}</style></defs><title>icon-ubicacion</title><path class="cls-1" d="M7.71,15.28a.23.23,0,0,1-.17-.08l-4.19-5A5.54,5.54,0,0,1,7.59,1.1h.25a5.54,5.54,0,0,1,4.24,9.11l-4.19,5A.23.23,0,0,1,7.71,15.28ZM7.59,1.57A5.07,5.07,0,0,0,3.7,9.91l4,4.78,4-4.78h0A5.07,5.07,0,0,0,7.84,1.57Z" transform="translate(-2.05 -1.1)"/><path class="cls-1" d="M7.71,10a3.34,3.34,0,1,1,3.34-3.34A3.34,3.34,0,0,1,7.71,10Zm0-6.2a2.87,2.87,0,1,0,2.87,2.86A2.86,2.86,0,0,0,7.71,3.78Z" transform="translate(-2.05 -1.1)"/></svg>