<svg id="Capa_1" data-name="Capa 1" xmlns="http://www.w3.org/2000/svg" viewBox="0 0 13.98 11.57"><defs><style>.cls-1{fill:#f8b122;}</style></defs><title>icon-banio</title><path class="cls-1" d="M11.81,13.57a.45.45,0,0,1-.34-.16L11,12.89H5l-.47.51a.47.47,0,0,1-.56.12A.6.6,0,0,1,3.69,13v-.4a4.69,4.69,0,0,1-1.22-2A12.88,12.88,0,0,1,1.87,8H1.81A.87.87,0,0,1,1,7V7a.87.87,0,0,1,.79-.93H12.33V5.61a.3.3,0,0,1,.19-.3.27.27,0,0,1,.3.29v.45h.25V3.32c0-.4-.61-.73-.61-.73h-.37a.29.29,0,0,0-.26.31v.92a.13.13,0,0,1,0,.1c-.21.23-.46.05-.46-.19V3.3A1.22,1.22,0,0,1,12.43,2h0a1.21,1.21,0,0,1,1.1,1.3V6.05h.19V5.61a.3.3,0,0,1,.19-.3.27.27,0,0,1,.3.29V6a.88.88,0,0,1,.75.93h0a.87.87,0,0,1-.79.94h-.07a12.72,12.72,0,0,1-.6,2.57,4.77,4.77,0,0,1-1.21,2V13a.64.64,0,0,1-.23.52A.46.46,0,0,1,11.81,13.57ZM4.93,12.31h6.16a.2.2,0,0,1,.16.07l.56.59h0v-.68A.3.3,0,0,1,12,12a3.81,3.81,0,0,0,1.13-1.77,11.47,11.47,0,0,0,.58-2.62.27.27,0,0,1,.25-.27h.29A.32.32,0,0,0,14.5,7V7a.32.32,0,0,0-.29-.34H1.81a.32.32,0,0,0-.3.34V7a.32.32,0,0,0,.3.34H2.1a.26.26,0,0,1,.24.27,12.55,12.55,0,0,0,.59,2.62A3.81,3.81,0,0,0,4.06,12a.3.3,0,0,1,.13.25V13h0l.56-.59A.2.2,0,0,1,4.93,12.31Z" transform="translate(-1.02 -2)"/></svg>