<svg id="Capa_1" data-name="Capa 1" xmlns="http://www.w3.org/2000/svg" viewBox="0 0 13 13.92"><defs><style>.cls-1{fill:#003e4c;}</style></defs><title>icon-modal-limite-creditos</title><path class="cls-1" d="M10.89,11.94A5.94,5.94,0,0,1,8,11.26,2.12,2.12,0,0,1,6.78,9.5,2.11,2.11,0,0,1,8,7.74a6.31,6.31,0,0,1,5.74,0h0A2.11,2.11,0,0,1,15,9.5a2.12,2.12,0,0,1-1.24,1.76A5.94,5.94,0,0,1,10.89,11.94Zm0-4.52a5.45,5.45,0,0,0-2.68.64A1.77,1.77,0,0,0,7.15,9.5a1.77,1.77,0,0,0,1.06,1.43,5.89,5.89,0,0,0,5.36,0A1.77,1.77,0,0,0,14.63,9.5a1.77,1.77,0,0,0-1.06-1.44A5.45,5.45,0,0,0,10.89,7.42Z" transform="translate(-2 -1.04)"/><path class="cls-1" d="M10.89,13.45A5.94,5.94,0,0,1,8,12.77,2.09,2.09,0,0,1,6.78,11a.18.18,0,0,1,.2-.18.19.19,0,0,1,.18.19,1.72,1.72,0,0,0,1.05,1.48,5.89,5.89,0,0,0,5.36,0A1.77,1.77,0,0,0,14.63,11a.18.18,0,0,1,.18-.19A.18.18,0,0,1,15,11a2.12,2.12,0,0,1-1.24,1.76A5.94,5.94,0,0,1,10.89,13.45Z" transform="translate(-2 -1.04)"/><path class="cls-1" d="M7,11.22A.18.18,0,0,1,6.78,11V9.52A.18.18,0,0,1,7,9.34a.18.18,0,0,1,.18.18V11A.18.18,0,0,1,7,11.22Z" transform="translate(-2 -1.04)"/><path class="cls-1" d="M14.81,11.22a.18.18,0,0,1-.18-.19V9.52a.18.18,0,0,1,.18-.18.18.18,0,0,1,.19.18V11A.18.18,0,0,1,14.81,11.22Z" transform="translate(-2 -1.04)"/><path class="cls-1" d="M10.89,15A5.94,5.94,0,0,1,8,14.28a2.09,2.09,0,0,1-1.24-1.82.18.18,0,0,1,.2-.18.19.19,0,0,1,.18.19A1.72,1.72,0,0,0,8.21,14a5.89,5.89,0,0,0,5.36,0,1.77,1.77,0,0,0,1.06-1.43.18.18,0,0,1,.18-.19.18.18,0,0,1,.19.19,2.12,2.12,0,0,1-1.24,1.76A5.94,5.94,0,0,1,10.89,15Z" transform="translate(-2 -1.04)"/><path class="cls-1" d="M7,12.73a.18.18,0,0,1-.19-.19V11A.18.18,0,0,1,7,10.85a.18.18,0,0,1,.18.18v1.51A.18.18,0,0,1,7,12.73Z" transform="translate(-2 -1.04)"/><path class="cls-1" d="M14.81,12.73a.18.18,0,0,1-.18-.19V11a.18.18,0,0,1,.18-.18A.18.18,0,0,1,15,11v1.51A.18.18,0,0,1,14.81,12.73Z" transform="translate(-2 -1.04)"/><path class="cls-1" d="M6.11,5.93a5.94,5.94,0,0,1-2.87-.68A2.12,2.12,0,0,1,2,3.49,2.11,2.11,0,0,1,3.24,1.73,6.31,6.31,0,0,1,9,1.73H9a2.11,2.11,0,0,1,1.24,1.76A2.12,2.12,0,0,1,9,5.25,5.94,5.94,0,0,1,6.11,5.93Zm0-4.52a5.45,5.45,0,0,0-2.68.64A1.77,1.77,0,0,0,2.37,3.49,1.8,1.8,0,0,0,3.43,4.93a6,6,0,0,0,5.36,0A1.8,1.8,0,0,0,9.85,3.49,1.77,1.77,0,0,0,8.79,2.05,5.45,5.45,0,0,0,6.11,1.41Z" transform="translate(-2 -1.04)"/><path class="cls-1" d="M6.11,7.44a5.94,5.94,0,0,1-2.87-.68A2.09,2.09,0,0,1,2,4.94a.18.18,0,0,1,.2-.18A.19.19,0,0,1,2.38,5,1.72,1.72,0,0,0,3.43,6.43a5.89,5.89,0,0,0,5.36,0A1.77,1.77,0,0,0,9.85,5,.18.18,0,0,1,10,4.81a.18.18,0,0,1,.19.19A2.12,2.12,0,0,1,9,6.76,5.94,5.94,0,0,1,6.11,7.44Z" transform="translate(-2 -1.04)"/><path class="cls-1" d="M2.19,5.21A.18.18,0,0,1,2,5V3.51a.18.18,0,0,1,.19-.18.18.18,0,0,1,.18.18V5A.18.18,0,0,1,2.19,5.21Z" transform="translate(-2 -1.04)"/><path class="cls-1" d="M10,5.21A.18.18,0,0,1,9.85,5V3.51A.18.18,0,0,1,10,3.33a.18.18,0,0,1,.19.18V5A.18.18,0,0,1,10,5.21Z" transform="translate(-2 -1.04)"/><path class="cls-1" d="M6.12,9a6,6,0,0,1-2.88-.69A2.09,2.09,0,0,1,2,6.45a.18.18,0,0,1,.2-.18.19.19,0,0,1,.18.19A1.72,1.72,0,0,0,3.43,7.94a5.89,5.89,0,0,0,3.73.56.18.18,0,0,1,.21.15.19.19,0,0,1-.15.22A6.8,6.8,0,0,1,6.12,9Z" transform="translate(-2 -1.04)"/><path class="cls-1" d="M9.76,7.52a.19.19,0,0,1-.1,0,.18.18,0,0,1-.05-.26,1.29,1.29,0,0,0,.24-.72A.18.18,0,0,1,10,6.32a.18.18,0,0,1,.19.19,1.66,1.66,0,0,1-.3.93A.21.21,0,0,1,9.76,7.52Z" transform="translate(-2 -1.04)"/><path class="cls-1" d="M2.19,6.72A.18.18,0,0,1,2,6.53V5a.18.18,0,0,1,.19-.18A.18.18,0,0,1,2.37,5V6.53A.18.18,0,0,1,2.19,6.72Z" transform="translate(-2 -1.04)"/><path class="cls-1" d="M10,6.72a.18.18,0,0,1-.18-.19V5A.18.18,0,0,1,10,4.84a.18.18,0,0,1,.19.18V6.53A.18.18,0,0,1,10,6.72Z" transform="translate(-2 -1.04)"/><path class="cls-1" d="M6.11,10.34a5.83,5.83,0,0,1-2.87-.69A2.08,2.08,0,0,1,2,7.83a.18.18,0,0,1,.2-.18.2.2,0,0,1,.18.2A1.73,1.73,0,0,0,3.43,9.33a5.76,5.76,0,0,0,3.51.58.18.18,0,0,1,.21.16.18.18,0,0,1-.16.21A6.51,6.51,0,0,1,6.11,10.34Z" transform="translate(-2 -1.04)"/><path class="cls-1" d="M2.19,8.1A.18.18,0,0,1,2,7.92V6.41a.18.18,0,0,1,.19-.19.18.18,0,0,1,.18.19V7.92A.18.18,0,0,1,2.19,8.1Z" transform="translate(-2 -1.04)"/><path class="cls-1" d="M10,7.48a.19.19,0,0,1-.18-.19V6.41A.18.18,0,0,1,10,6.22a.18.18,0,0,1,.19.19v.88A.19.19,0,0,1,10,7.48Z" transform="translate(-2 -1.04)"/><path class="cls-1" d="M6.11,11.72A5.94,5.94,0,0,1,3.24,11,2.11,2.11,0,0,1,2,9.22.18.18,0,0,1,2.2,9a.19.19,0,0,1,.18.19,1.72,1.72,0,0,0,1.05,1.48,5.83,5.83,0,0,0,3.51.59.18.18,0,0,1,.21.16.19.19,0,0,1-.16.21A6.49,6.49,0,0,1,6.11,11.72Z" transform="translate(-2 -1.04)"/><path class="cls-1" d="M2.19,9.49A.19.19,0,0,1,2,9.3V7.79a.19.19,0,1,1,.37,0V9.3A.19.19,0,0,1,2.19,9.49Z" transform="translate(-2 -1.04)"/><path class="cls-1" d="M6.11,13.11a5.83,5.83,0,0,1-2.87-.69A2.09,2.09,0,0,1,2,10.6a.18.18,0,0,1,.2-.18.2.2,0,0,1,.18.2A1.73,1.73,0,0,0,3.43,12.1a5.83,5.83,0,0,0,3.51.58.19.19,0,0,1,0,.37A6.51,6.51,0,0,1,6.11,13.11Z" transform="translate(-2 -1.04)"/><path class="cls-1" d="M2.19,10.87A.18.18,0,0,1,2,10.68V9.18A.18.18,0,0,1,2.19,9a.18.18,0,0,1,.18.19v1.5A.18.18,0,0,1,2.19,10.87Z" transform="translate(-2 -1.04)"/></svg>