<svg id="Capa_1" data-name="Capa 1" xmlns="http://www.w3.org/2000/svg" viewBox="0 0 14 9.66"><defs><style>.cls-1{fill:#fbfdfd;}</style></defs><title>icon-email</title><path class="cls-1" d="M14.76,13.66H1.24A.24.24,0,0,1,1,13.42V4.24A.24.24,0,0,1,1.24,4H14.76a.24.24,0,0,1,.24.24v9.18A.24.24,0,0,1,14.76,13.66ZM1.47,13.18H14.53V4.49H1.47Z" transform="translate(-1 -4)"/><path class="cls-1" d="M8,10.84a.21.21,0,0,1-.16-.07L1.08,4.42A.25.25,0,0,1,1,4.15.23.23,0,0,1,1.24,4H14.76a.23.23,0,0,1,.22.15.25.25,0,0,1-.06.27L8.16,10.77A.21.21,0,0,1,8,10.84ZM1.84,4.49,8,10.27l6.16-5.78Z" transform="translate(-1 -4)"/><path class="cls-1" d="M14.76,13.66H1.24A.24.24,0,0,1,1,13.5a.27.27,0,0,1,.08-.28L6.45,9.08a.23.23,0,0,1,.33.05.25.25,0,0,1,0,.34l-4.8,3.71H14.06L9.32,9.52a.25.25,0,0,1,0-.34.23.23,0,0,1,.33,0l5.3,4.09a.27.27,0,0,1,.08.28A.24.24,0,0,1,14.76,13.66Z" transform="translate(-1 -4)"/></svg>