<svg id="Capa_1" data-name="Capa 1" xmlns="http://www.w3.org/2000/svg" viewBox="0 0 14 13.97"><defs><style>.cls-1{fill:#fbfdfd;}</style></defs><title>icon-whatsapp</title><g id="_Grupo_" data-name="&lt;Grupo&gt;"><path class="cls-1" d="M10.38,12.35a4.1,4.1,0,0,1-.56-.06A3.89,3.89,0,0,1,8.88,12a7.52,7.52,0,0,1-1.24-.68,8.57,8.57,0,0,1-1.47-1.24,9.45,9.45,0,0,1-1-1.16,8.75,8.75,0,0,1-.66-1A5.5,5.5,0,0,1,4.11,7a5.06,5.06,0,0,1-.17-.67,3.16,3.16,0,0,1,0-.47,1.47,1.47,0,0,0,0-.16v0A1.4,1.4,0,0,1,4,5.4a.69.69,0,0,1,.19-.25L5.34,4a.52.52,0,0,1,.38-.16A.48.48,0,0,1,6,3.92a.73.73,0,0,1,.19.2h0L7.14,5.9a.63.63,0,0,1,.05.41A.71.71,0,0,1,7,6.66l-.41.42h0v0a1.34,1.34,0,0,0,.14.35A2.72,2.72,0,0,0,7,7.94a5.4,5.4,0,0,0,.6.68,7.84,7.84,0,0,0,.68.61,3.65,3.65,0,0,0,.49.31,1.61,1.61,0,0,0,.28.12h.09l.49-.5h0A.71.71,0,0,1,10.13,9a.62.62,0,0,1,.29.06h0l1.69,1a.57.57,0,0,1,.28.39h0a.56.56,0,0,1-.17.47L11.1,12.07a.76.76,0,0,1-.24.18.86.86,0,0,1-.3.09h-.18ZM4.21,5.72s0,.08,0,.17a1.53,1.53,0,0,0,0,.4,4.16,4.16,0,0,0,.16.63,5.49,5.49,0,0,0,.36.83,8.77,8.77,0,0,0,.63,1,8.92,8.92,0,0,0,1,1.13A9,9,0,0,0,7.8,11.08,6.89,6.89,0,0,0,9,11.73a4.56,4.56,0,0,0,.87.27,3.21,3.21,0,0,0,.52.05h.15a1,1,0,0,0,.2-.07.64.64,0,0,0,.16-.11l1.16-1.16a.23.23,0,0,0,.08-.22.26.26,0,0,0-.15-.18l-1.66-1,0,0a.36.36,0,0,0-.16,0,.42.42,0,0,0-.26.1l-.49.5a.35.35,0,0,1-.12.07.22.22,0,0,1-.13,0L9,10a1.92,1.92,0,0,1-.35-.14,4.93,4.93,0,0,1-.53-.34,7.25,7.25,0,0,1-.72-.64,5.27,5.27,0,0,1-.63-.71,6.18,6.18,0,0,1-.34-.53,2.19,2.19,0,0,1-.17-.46v0A.52.52,0,0,1,6.3,7a.23.23,0,0,1,.07-.11l.43-.43a.38.38,0,0,0,.1-.21.27.27,0,0,0,0-.2L5.94,4.28a.4.4,0,0,0-.1-.12.17.17,0,0,0-.12,0,.25.25,0,0,0-.17.08L4.39,5.36a.61.61,0,0,0-.12.16A.89.89,0,0,0,4.21,5.72Zm5,3.94ZM6.58,7.09Zm0,0Z" transform="translate(-1 -1)"/></g><g id="_669Yj9" data-name="669Yj9"><path class="cls-1" d="M14.85,9.24c0-.21.07-.42.1-.63L15,8.29V7.63c0-.14-.06-.3-.08-.47a7.49,7.49,0,0,0-.21-1A6.9,6.9,0,0,0,8.92,1.05.58.58,0,0,1,8.75,1H7.17c-.08,0-.21.05-.34.08-.28.06-.57.13-.85.21a7,7,0,0,0-4.25,9.77,1.51,1.51,0,0,1,.11,1.19c-.23.76-.43,1.54-.63,2.28L1.09,15l.33-.09c.63-.17,1.26-.34,1.87-.53a3,3,0,0,1,2.14.11,7,7,0,0,0,5.9-.34A7.05,7.05,0,0,0,14.85,9.24ZM8.92,14.42a6.48,6.48,0,0,1-1,.08,6.26,6.26,0,0,1-3.2-.9.4.4,0,0,0-.34,0l-1.31.35-1.31.34L2.12,13c.12-.45.23-.88.36-1.31a.36.36,0,0,0,0-.37A6.5,6.5,0,0,1,6.59,1.62,6.51,6.51,0,0,1,14.42,7,6.54,6.54,0,0,1,8.92,14.42Z" transform="translate(-1 -1)"/></g></svg>