<svg id="Capa_1" data-name="Capa 1" xmlns="http://www.w3.org/2000/svg" viewBox="0 0 11.84 15.31"><defs><style>.cls-1{font-size:7.59px;font-family:Poppins-Regular, Poppins;}.cls-1,.cls-2{fill:#808081;}</style></defs><title>icon-descargar</title><text class="cls-1" transform="translate(3.44 10.96) scale(1.06 1)">X</text><g id="dW1XQ4"><path class="cls-2" d="M2.87,1H9.56l.1,0a2.88,2.88,0,0,1,1.47.7c.65.63,1.3,1.27,1.93,1.94a2.64,2.64,0,0,1,.73,1.81c0,2.65,0,5.3,0,8a1.06,1.06,0,0,1-1.1,1.1H3a1.21,1.21,0,0,1-.49-.11,1,1,0,0,1-.6-1V2.11a1.1,1.1,0,0,1,.28-.77A1.25,1.25,0,0,1,2.87,1Zm6.69.87-.27,0H3.09c-.22,0-.3.07-.3.29V13.39c0,.23.07.3.29.3h9.57c.22,0,.29-.07.29-.29V5.51c0-.09,0-.18,0-.28H9.56Zm.85,2.5h2.07L10.41,2.3Z" transform="translate(-1.95 -1)"/></g></svg>