<svg id="Capa_1" data-name="Capa 1" xmlns="http://www.w3.org/2000/svg" viewBox="0 0 8.57 13.78"><defs><style>.cls-1{fill:#adadad;}</style></defs><title>icon-celular</title><path class="cls-1" d="M11.16,15H5.41A1.41,1.41,0,0,1,4,13.59v-11A1.41,1.41,0,0,1,5.41,1.22h5.75a1.41,1.41,0,0,1,1.41,1.41v11A1.41,1.41,0,0,1,11.16,15M5.41,1.64a1,1,0,0,0-1,1v11a1,1,0,0,0,1,1h5.75a1,1,0,0,0,1-1v-11a1,1,0,0,0-1-1Z" transform="translate(-4 -1.22)"/><path class="cls-1" d="M12.36,12.81H4.21A.21.21,0,0,1,4,12.6V3.34a.21.21,0,0,1,.21-.21h8.15a.21.21,0,0,1,.21.21V12.6a.21.21,0,0,1-.21.21m-7.94-.42h7.73V3.55H4.42Z" transform="translate(-4 -1.22)"/><path class="cls-1" d="M9,2.61H7.54a.22.22,0,1,1,0-.43H9a.22.22,0,0,1,0,.43" transform="translate(-4 -1.22)"/><path class="cls-1" d="M8.41,13.94H8.16A.22.22,0,0,1,8,13.73a.21.21,0,0,1,.21-.21h.25a.21.21,0,0,1,.21.21.22.22,0,0,1-.21.21" transform="translate(-4 -1.22)"/></svg>